<svg width="17" height="16" viewBox="0 0 17 16" fill="none" xmlns="http://www.w3.org/2000/svg">
<g clip-path="url(#clip0_319_1246)">
<path d="M4.01067 6.51C4.32259 5.5663 4.92457 4.74521 5.73074 4.16387C6.53691 3.58252 7.50609 3.27062 8.5 3.27267C9.62667 3.27267 10.6453 3.67267 11.4453 4.32733L13.7733 2C12.3547 0.763333 10.5367 0 8.5 0C5.34667 0 2.632 1.79867 1.32667 4.43333L4.01067 6.51Z" fill="#EA4335"/>
<path d="M11.1933 12.0086C10.4667 12.4773 9.544 12.7273 8.5 12.7273C7.51005 12.7293 6.54454 12.4199 5.74016 11.8429C4.93578 11.2658 4.3333 10.4504 4.018 9.51196L1.32467 11.5566C1.9855 12.8942 3.00818 14.0196 4.27655 14.805C5.54492 15.5904 7.00814 16.0044 8.5 16C10.4553 16 12.3233 15.3046 13.7227 14L11.194 12.0086H11.1933Z" fill="#34A853"/>
<path d="M13.7227 14C15.186 12.6346 16.136 10.6026 16.136 7.99995C16.136 7.52662 16.0633 7.01795 15.9547 6.54529H8.5V9.63662H12.7907C12.5793 10.676 12.0107 11.4806 11.194 12.0086L13.7227 14Z" fill="#4A90E2"/>
<path d="M4.018 9.51202C3.8549 9.02462 3.77205 8.51397 3.77267 8.00002C3.77267 7.47868 3.856 6.97802 4.01067 6.51002L1.32667 4.43335C0.777587 5.54181 0.494537 6.76303 0.500001 8.00002C0.500001 9.28002 0.796668 10.4867 1.32467 11.5567L4.018 9.51202Z" fill="#FBBC05"/>
</g>
<defs>
<clipPath id="clip0_319_1246">
<rect width="16" height="16" fill="white" transform="translate(0.5)"/>
</clipPath>
</defs>
</svg>
